<mxfile host="app.diagrams.net" modified="2023-09-06T14:25:58.558Z" agent="Mozilla/5.0 (Windows NT 10.0; Win64; x64) AppleWebKit/537.36 (KHTML, like Gecko) Chrome/116.0.0.0 Safari/537.36 Edg/116.0.1938.69" version="21.6.7" etag="hZrJ0G_JZdBEpOvo3JxQ" type="github">
  <diagram name="Page-1" id="DUs7OQFNyD8pfmHfXus9">
    <mxGraphModel>
      <root>
        <mxCell id="0" />
        <mxCell id="1" parent="0" />
      </root>
    </mxGraphModel>
  </diagram>
</mxfile>
